PathFileType	4	(X/Y/Z)	Walk4.trc
DataRate	CameraRate	NumFrames	NumMarkers	Units	OrigDataRate	OrigDataStartFrame	OrigNumFrames
200.000000	200.000000	6	59	mm	200.000000	401	559
Frame#	Times		LFHD		C7		CLAV		STRN		RBack		RASI		RACR1		RUA1		RElbow		RFA1		RWRU		RCAR		LACR1		LUA1		LFA1		LWRR		LCAR		RTH1		RTH3		RTH2		RLFC		LTH1		LTH3		LTH2		LTH4		LLFC		LTB1		LTB3		LTB4		LMT1		LToe		T10		RTH4		LMMAL		LTB2		LMT5		RFHD		RPSI		RWRR		RToe		LLMAL		LElbow		LPSI		RBHD		RTB1		LBHD		LWRU		LElbowM		RTB2		RTB4		RTB3		RMT1		LASI		RMMAL		RLMAL		RMT5		RCAL		LCAL		RElbowM
			X1	Y1	Z1	X2	Y2	Z2	X3	Y3	Z3	X4	Y4	Z4	X5	Y5	Z5	X6	Y6	Z6	X7	Y7	Z7	X8	Y8	Z8	X9	Y9	Z9	X10	Y10	Z10	X11	Y11	Z11	X12	Y12	Z12	X13	Y13	Z13	X14	Y14	Z14	X15	Y15	Z15	X16	Y16	Z16	X17	Y17	Z17	X18	Y18	Z18	X19	Y19	Z19	X20	Y20	Z20	X21	Y21	Z21	X22	Y22	Z22	X23	Y23	Z23	X24	Y24	Z24	X25	Y25	Z25	X26	Y26	Z26	X27	Y27	Z27	X28	Y28	Z28	X29	Y29	Z29	X30	Y30	Z30	X31	Y31	Z31	X32	Y32	Z32	X33	Y33	Z33	X34	Y34	Z34	X35	Y35	Z35	X36	Y36	Z36	X37	Y37	Z37	X38	Y38	Z38	X39	Y39	Z39	X40	Y40	Z40	X41	Y41	Z41	X42	Y42	Z42	X43	Y43	Z43	X44	Y44	Z44	X45	Y45	Z45	X46	Y46	Z46	X47	Y47	Z47	X48	Y48	Z48	X49	Y49	Z49	X50	Y50	Z50	X51	Y51	Z51	X52	Y52	Z52	X53	Y53	Z53	X54	Y54	Z54	X55	Y55	Z55	X56	Y56	Z56	X57	Y57	Z57	X58	Y58	Z58	X59	Y59	Z59

401	2.005	297.15	1589.4	-19.052	131.05	1421	22.011	257.74	1347.4	6.6361	342.69	1126.4	0.26378	98.003	1312.1	119.12	302.41	955.07	148.83	219.71	1351.5	183.82	217.67	1137.3	239.9	202.93	1029.9	261.93	274.89	894.5	254.39	258.4	783.84	273.49	306.77	747.87	260.71	185.38	1363.4	-157.82	168.78	1156.7	-211.29	234.13	925.16	-241.33	278.88	816.47	-202.95	285.51	775.01	-246.7	228.18	749	190.99	255.96	567.15	145.62	305.87	677.75	140.55	264.75	462.78	129.26	221.44	736.43	-153.43	283.96	561.27	-131.97	322.12	669.89	-119.92	253.08	644.76	-144.64	291.33	467.49	-120.29	263.33	369.44	-46.972	119.51	248.53	-49.715	190.52	306.99	-52.342	95.013	73.732	-49.972	117.32	46.031	-76.166	102.84	1136.3	19.137	241.59	658	167.17	34.794	195.42	-15.547	173.33	329.35	-119.26	50.933	80.44	-112.24	306.63	1590.4	53.659	84.644	980.49	87.481	298.11	793.22	211.28	375.17	28.976	77.587	10.63	196.34	-95.232	157.17	1036.7	-229.06	74.726	968.71	-26.95	137.66	1549.7	96.608	276.77	340.91	48.108	126.81	1558.5	-29.934	228.57	804.01	-253.06	143.07	1018.9	-159.86	249.09	251.73	115.97	253.91	250.85	44.358	230.91	161.48	39.972	331.23	37.851	44.252	281.62	945.43	-126.43	193.03	75.299	9.791	175.09	60.219	88.569	284.12	21.724	128.9	127.97	26.295	41.135	-42.636	209.39	-39.903	166.88	1010.6	187.08
402	2.01	302.35	1590.2	-18.88	136.18	1421.8	22.14	262.86	1348.2	6.8552	347.81	1127.4	0.78467	103.13	1313	119.38	307.61	956.28	149.3	224.77	1352.6	184.03	223.43	1138.5	240.39	209.41	1031	262.5	282.7	896.27	254.23	267.43	785.36	272.93	316.23	750.04	259.92	190.57	1364.2	-157.64	173.41	1157.4	-210.86	237.11	925.37	-240.75	280.6	816.11	-202.32	286.97	774.54	-246.03	233.05	749.5	190.97	258.44	567.35	145.62	309.6	677.36	140.2	266.03	462.76	129.35	228.02	737.92	-153.56	291.98	563.27	-132.06	329.12	672.21	-119.81	260.47	646.51	-144.81	299.95	469.24	-120.13	273.69	370.71	-46.738	132.07	247.25	-49.114	201.95	306.97	-51.924	111.49	72.544	-49.289	134.44	45.381	-75.512	108.04	1137.1	19.462	245.23	658.36	167.08	48.382	192.59	-14.756	184.22	329.01	-118.78	67.131	78.223	-111.47	311.76	1591.2	53.833	89.912	981.27	87.55	306.91	795.45	210.68	375.14	28.949	77.599	24.115	192.97	-94.364	161.12	1037.5	-228.49	80.127	969.57	-26.878	142.77	1550.5	96.668	277.58	340.76	48.188	132.02	1559.3	-29.889	230.41	804.29	-252.74	146.99	1019.8	-159.24	249.56	251.65	116.02	254.43	250.77	44.423	231.18	161.46	39.995	331.2	37.85	44.297	287.56	946.55	-125.84	193.1	75.387	9.779	175.07	60.308	88.534	284.1	21.716	128.94	127.95	26.434	41.049	-29.504	204.78	-38.969	173.04	1011.6	187.94
403	2.015	307.53	1590.9	-18.722	141.31	1422.6	22.256	267.96	1349.1	7.0634	352.93	1128.4	1.3062	108.25	1313.9	119.63	312.85	957.43	149.71	229.82	1353.7	184.22	229.17	1139.6	240.87	215.85	1032.1	263.08	290.47	898.04	254.07	276.42	786.89	272.34	325.67	752.22	259.11	195.74	1364.9	-157.48	178.05	1158	-210.45	240.09	925.54	-240.18	282.31	815.73	-201.72	288.39	774.04	-245.39	237.88	749.96	190.94	260.91	567.53	145.62	313.33	676.93	139.88	267.33	462.74	129.43	234.56	739.36	-153.7	299.91	565.23	-132.14	336.03	674.47	-119.67	267.8	648.22	-144.98	308.47	470.92	-119.97	283.99	371.91	-46.495	144.7	245.86	-48.533	213.39	306.86	-51.514	128.14	71.304	-48.658	151.75	44.686	-74.898	113.23	1137.9	19.775	248.84	658.68	166.97	62.116	189.6	-14.005	195.12	328.55	-118.31	83.526	75.916	-110.75	316.9	1592	53.991	95.182	982	87.622	315.69	797.7	210.07	375.12	28.923	77.615	37.761	189.43	-93.536	165.07	1038.3	-227.93	85.512	970.38	-26.8	147.87	1551.4	96.715	278.41	340.62	48.257	137.23	1560.1	-29.857	232.23	804.53	-252.42	150.9	1020.8	-158.62	250.04	251.57	116.07	254.95	250.69	44.479	231.46	161.45	40.011	331.17	37.846	44.339	293.51	947.61	-125.21	193.17	75.48	9.7653	175.06	60.404	88.497	284.08	21.71	128.97	127.94	26.582	40.964	-16.188	199.95	-38.076	179.25	1012.5	188.75
404	2.02	312.72	1591.7	-18.58	146.42	1423.3	22.36	273.06	1349.8	7.2606	358.03	1129.3	1.8253	113.36	1314.7	119.86	318.1	958.51	150.04	234.87	1354.8	184.39	234.89	1140.7	241.36	222.27	1033.1	263.65	298.2	899.79	253.93	285.38	788.41	271.73	335.06	754.4	258.28	200.91	1365.6	-157.33	182.68	1158.6	-210.06	243.04	925.66	-239.64	284.03	815.33	-201.17	289.79	773.51	-244.79	242.65	750.38	190.89	263.38	567.69	145.6	317.03	676.49	139.57	268.66	462.73	129.5	241.05	740.76	-153.86	307.75	567.15	-132.22	342.86	676.66	-119.5	275.06	649.89	-145.15	316.87	472.53	-119.79	294.23	373.06	-46.246	157.41	244.35	-47.974	224.86	306.66	-51.112	144.96	70.021	-48.091	169.22	43.953	-74.338	118.42	1138.6	20.075	252.42	658.97	166.83	76.001	186.45	-13.294	206.05	327.99	-117.84	100.11	73.534	-110.09	322.02	1592.7	54.133	100.45	982.68	87.7	324.44	799.95	209.46	375.1	28.898	77.637	51.57	185.72	-92.747	169.01	1039	-227.38	90.882	971.14	-26.718	152.96	1552.1	96.75	279.25	340.47	48.314	142.43	1560.8	-29.837	234.02	804.73	-252.11	154.81	1021.6	-158.02	250.55	251.49	116.11	255.49	250.61	44.523	231.76	161.44	40.019	331.14	37.84	44.377	299.46	948.61	-124.55	193.25	75.577	9.7484	175.06	60.507	88.457	284.07	21.708	129.01	127.93	26.74	40.88	-2.6796	194.91	-37.219	185.52	1013.4	189.52
405	2.025	317.89	1592.3	-18.453	151.52	1424	22.45	278.15	1350.6	7.4469	363.13	1130.2	2.3391	118.47	1315.4	120.09	323.37	959.52	150.32	239.92	1355.8	184.56	240.59	1141.8	241.85	228.65	1034.1	264.22	305.9	901.51	253.79	294.31	789.91	271.09	344.42	756.58	257.43	206.08	1366.2	-157.18	187.31	1159.2	-209.69	245.99	925.74	-239.12	285.75	814.91	-200.66	291.15	772.95	-244.23	247.36	750.76	190.84	265.85	567.83	145.56	320.72	676.02	139.29	270.02	462.7	129.56	247.49	742.11	-154.03	315.51	569.01	-132.3	349.62	678.79	-119.3	282.24	651.5	-145.32	325.15	474.07	-119.61	304.39	374.14	-45.993	170.2	242.74	-47.436	236.33	306.38	-50.719	161.95	68.7	-47.599	186.85	43.196	-73.848	123.61	1139.2	20.363	255.97	659.21	166.66	90.044	183.16	-12.623	216.99	327.31	-117.38	116.87	71.089	-109.5	327.15	1593.4	54.26	105.73	983.3	87.784	333.16	802.19	208.83	375.09	28.874	77.663	65.542	181.85	-91.997	172.96	1039.6	-226.83	96.237	971.85	-26.632	158.05	1552.8	96.773	280.11	340.31	48.358	147.61	1561.5	-29.828	235.8	804.89	-251.82	158.72	1022.5	-157.42	251.08	251.41	116.14	256.05	250.53	44.555	232.07	161.43	40.018	331.11	37.833	44.411	305.4	949.54	-123.87	193.33	75.677	9.727	175.06	60.617	88.414	284.06	21.709	129.04	127.92	26.908	40.798	11.031	189.66	-36.393	191.84	1014.2	190.24
406	2.03	323.07	1592.9	-18.342	156.61	1424.6	22.528	283.23	1351.2	7.6224	368.23	1131	2.8448	123.58	1316.1	120.31	328.66	960.44	150.54	244.96	1356.7	184.71	246.28	1142.8	242.34	235	1035.1	264.78	313.57	903.21	253.66	303.21	791.39	270.43	353.73	758.74	256.57	211.23	1366.8	-157.05	191.94	1159.7	-209.33	248.93	925.76	-238.62	287.47	814.44	-200.18	292.5	772.36	-243.71	252	751.08	190.77	268.33	567.94	145.52	324.39	675.53	139.04	271.41	462.67	129.6	253.89	743.4	-154.22	323.18	570.8	-132.37	356.3	680.83	-119.07	289.35	653.04	-145.49	333.31	475.53	-119.43	314.49	375.16	-45.737	183.07	241.02	-46.92	247.83	306.01	-50.337	179.08	67.351	-47.193	204.62	42.426	-73.442	128.79	1139.8	20.639	259.49	659.41	166.46	104.25	179.73	-11.993	227.94	326.52	-116.94	133.8	68.596	-108.98	332.27	1594	54.37	111	983.86	87.872	341.85	804.43	208.2	375.08	28.85	77.696	79.679	177.85	-91.285	176.9	1040.2	-226.28	101.58	972.49	-26.542	163.13	1553.5	96.786	281	340.15	48.388	152.79	1562.2	-29.83	237.56	805	-251.53	162.64	1023.2	-156.84	251.64	251.32	116.16	256.63	250.44	44.573	232.39	161.42	40.006	331.09	37.823	44.439	311.31	950.41	-123.18	193.43	75.779	9.6998	175.08	60.737	88.368	284.05	21.716	129.07	127.92	27.086	40.717	24.951	184.22	-35.594	198.21	1015	190.91
